<svg width="102" height="54" viewBox="0 0 102 54" fill="none" xmlns="http://www.w3.org/2000/svg">
<path d="M35.8388 0.803398C36.2168 0.803398 36.3788 1.1274 36.3788 1.3974C36.3788 1.7214 36.1628 2.0454 35.7848 1.9914C33.7868 1.9374 31.8968 1.8834 30.0608 1.8834C27.9008 1.8834 25.7948 1.9374 23.5808 2.0454C23.6348 2.1534 23.5808 2.3154 23.5268 2.4234C16.1288 17.4354 11.6468 33.9054 10.4588 50.6454C12.6188 50.6454 14.8328 50.7534 16.9928 50.9154C17.3168 50.9154 17.5868 51.1854 17.5868 51.5094C17.5328 51.8334 17.2628 52.1034 16.9388 52.1034C14.7248 51.9414 12.5648 51.8334 10.3508 51.8334V52.4814C10.3508 52.8594 10.0268 53.0754 9.70276 53.0754C9.43276 53.0754 9.16276 52.8594 9.16276 52.4814V51.8334C8.94676 51.8334 8.73076 51.8334 8.51476 51.8334C8.56876 51.8334 8.62276 51.8874 8.67676 51.8874C8.94676 51.9954 9.10876 52.2114 9.10876 52.4814C9.10876 52.8054 8.78476 53.1834 8.35276 53.0214C6.13876 52.2654 3.76276 52.1574 1.38676 52.1034C1.00876 52.1034 0.846759 51.8334 0.846759 51.5634C0.846759 51.2394 1.06276 50.9694 1.44076 50.9154C4.08676 50.7534 6.57076 50.6454 9.27076 50.6454C10.4048 34.4454 14.6708 17.9214 22.3928 2.0994C18.0188 2.3694 13.6988 2.8014 9.37876 3.4494H9.21676C8.94676 3.4494 8.73076 3.3414 8.67676 3.0714V2.9634C8.67676 2.6394 8.83876 2.3694 9.10876 2.3154C16.0208 1.2894 23.0948 0.695396 30.3308 0.695396C32.1668 0.695396 34.0028 0.749395 35.8388 0.803398ZM41.8108 28.9914C41.9188 29.0994 41.9728 29.2074 41.9728 29.3694C41.9728 29.5314 41.9188 29.6934 41.7568 29.8014C40.0288 31.1514 37.4368 33.0954 34.3588 33.0954C31.2268 33.0954 31.1188 30.9894 30.8488 29.6934C30.7948 29.4234 30.7948 28.8834 30.6868 28.8294H30.5788C30.5248 28.8294 29.8768 28.8294 27.9328 30.7734C26.8528 31.8534 25.9348 32.9334 25.5568 33.4734C25.5568 33.5274 25.5028 33.5814 25.5028 33.5814C25.3948 33.7434 25.2328 33.7974 25.0168 33.7974H24.9628C24.6388 33.7974 24.4228 33.4194 24.4768 33.1494C24.9628 30.8274 25.7188 28.6674 26.5828 26.5074C26.6368 26.2914 26.9068 26.1834 27.1228 26.1834C27.5548 26.1834 27.7708 26.6694 27.6088 26.9934C27.0688 28.3434 26.5288 29.6394 26.1508 31.0434C27.5008 29.4774 29.4448 27.6414 30.5788 27.6414C31.7668 27.6414 31.9288 28.7754 31.9828 29.5854C32.0908 30.8814 32.2528 32.0154 34.3588 32.0154C36.4648 32.0154 38.4628 30.8274 41.0548 28.8834C41.1628 28.8294 41.2708 28.7754 41.3788 28.7754C41.4868 28.7754 41.6488 28.8294 41.8108 28.9914ZM58.2905 28.9914C58.3985 29.0994 58.4525 29.2074 58.4525 29.3694C58.4525 29.5314 58.3985 29.6934 58.2365 29.8014C56.1305 31.4754 52.4585 33.0954 48.5705 34.5534C47.7065 34.8774 46.8425 35.2014 45.9785 35.5794C42.7385 47.6754 39.1745 53.8314 35.2865 53.8314C33.7745 53.8314 32.5325 52.5894 32.0465 50.5914C31.9385 50.0514 31.8305 49.4574 31.8305 48.8094C31.8305 45.1374 34.0985 39.7914 40.7945 36.6054C42.1445 35.9574 43.6025 35.3094 45.0605 34.7154C45.4925 33.0414 45.9245 31.2054 46.3565 29.1534C44.5205 31.2054 41.4425 34.4994 39.8225 34.4994H39.6605C39.2825 34.4994 39.0125 34.3374 38.8505 34.2294C38.5265 34.0134 38.3645 33.5814 38.3645 33.0954C38.3645 31.7994 39.2825 29.8554 40.1465 28.7214C41.3885 27.1554 42.7385 26.3454 43.9805 26.3454C44.5205 26.3454 45.0605 26.4534 45.5465 26.7774C45.8165 26.9394 45.9785 27.2634 45.7625 27.5334C45.5465 27.8034 45.2225 27.9114 44.9525 27.7494C44.6285 27.5334 44.3045 27.4794 43.9805 27.4794C42.9005 27.4794 41.9285 28.3974 41.3885 28.9914C39.8225 30.8274 39.3365 33.0414 39.6065 33.3654C39.6605 33.3654 40.3625 33.6354 43.1165 30.9354C44.6825 29.4234 46.3025 27.6414 46.9505 26.7774C47.1125 26.5614 47.4365 26.4534 47.7065 26.6154C47.8685 26.7774 47.9765 26.9934 47.9765 27.2094C47.4365 29.6934 46.8965 32.0694 46.3565 34.1754C46.9505 33.9594 47.5445 33.6894 48.1385 33.4734C52.0265 32.0694 55.7525 30.7194 57.5345 28.9374C57.6425 28.8294 57.7505 28.7754 57.8585 28.7754C58.0205 28.7754 58.1825 28.8834 58.2905 28.9914ZM35.2865 52.6974C37.2305 52.6974 40.7945 50.2674 44.6825 36.1194C43.4945 36.5514 42.3605 37.0914 41.2805 37.6314C35.0705 40.7634 33.0185 45.5694 33.0185 48.8634C33.0185 49.4034 33.0725 49.8894 33.1805 50.3214C33.5045 51.7794 34.3145 52.6974 35.2865 52.6974ZM55.7091 38.8194C55.0611 38.8194 54.6831 38.4954 54.5751 38.3334C54.4131 38.1174 54.3591 37.8474 54.3591 37.5234C54.3591 35.3094 59.0571 32.0154 59.0571 31.3134C59.0571 31.1514 58.7871 30.8274 57.3831 30.0714C56.5191 29.6394 56.1951 28.9374 56.1951 28.2894C56.1951 26.8854 57.6531 25.3734 58.8411 25.3734C59.4351 25.3734 59.8671 25.7514 59.8671 26.2914C59.8671 26.7774 59.4891 27.5874 57.8691 29.0454C59.5971 29.9634 60.1911 30.5574 60.1911 31.4214C60.1911 32.8794 57.9231 33.9054 55.7091 36.8214C55.4391 37.1454 55.4391 37.4154 55.4391 37.5234V37.6314C56.1411 38.4954 66.6171 31.7994 70.1811 28.9374C70.2891 28.8294 70.4511 28.7754 70.6131 28.7754C70.7751 28.7754 70.8831 28.8294 70.9911 28.9914C71.2071 29.2074 71.1531 29.5854 70.9371 29.7474C68.3451 31.6914 58.2471 38.8194 55.7091 38.8194ZM71.6327 26.6694C71.2547 26.6694 70.9847 26.3454 70.9847 26.0214C70.9847 25.6434 71.2547 25.3734 71.6327 25.3734C71.9567 25.3734 72.2807 25.6434 72.2807 26.0214C72.2807 26.3454 71.9567 26.6694 71.6327 26.6694ZM71.0387 34.1754C69.9047 34.1754 69.0407 33.9594 68.4467 33.3654C68.0687 32.9874 67.9067 32.6094 67.9067 32.0694C67.9067 31.2054 68.4467 30.0174 69.2567 28.6674C69.3647 28.5054 69.5267 28.4514 69.6887 28.4514C69.7967 28.4514 69.9047 28.5054 70.0127 28.5594C70.1747 28.7214 70.2827 28.8834 70.2827 29.0454C70.2827 29.1534 70.2287 29.2614 70.1747 29.3694C69.4187 30.3414 68.9867 31.3134 68.9867 31.9614C68.9867 32.1774 69.0407 32.3934 69.2027 32.5554C69.5807 32.9334 70.2287 33.0954 71.0387 33.0954C74.2787 33.0954 80.2187 30.4494 81.7307 28.9374C81.9467 28.7214 82.3247 28.7754 82.5407 28.9914C82.7567 29.2074 82.7027 29.5854 82.4867 29.8014C81.0827 31.2054 74.9267 34.1754 71.0387 34.1754ZM100.867 28.9914C100.975 29.0994 101.029 29.2074 101.029 29.3154C101.029 29.4774 100.921 29.6394 100.813 29.7474C98.977 31.0974 93.037 34.1754 89.257 34.1754C88.231 34.1754 87.367 33.9054 86.773 33.3654C86.179 32.8254 85.963 32.0694 85.963 31.1514C85.963 30.2334 86.233 29.0994 86.665 27.7494C83.101 33.0414 80.725 35.5794 80.725 35.6334C80.293 36.1194 79.753 36.3354 79.267 36.3354C78.511 36.3354 77.917 35.7414 77.917 34.6614C77.917 32.2854 81.697 26.6154 84.937 25.5354C85.261 25.4274 85.531 25.3734 85.855 25.3734C86.179 25.3734 86.503 25.4274 86.773 25.5894C88.177 23.3754 89.905 20.2974 91.633 17.3814C91.741 17.2194 91.957 17.1114 92.173 17.1114C92.659 17.1114 92.821 17.5974 92.605 17.9214C90.931 20.7294 87.097 27.8574 87.097 31.2054C87.097 31.7994 87.259 32.2854 87.529 32.5554C87.907 32.9334 88.555 33.0954 89.419 33.0954C92.659 33.0954 98.491 30.5034 100.057 28.9374C100.165 28.8294 100.273 28.7754 100.381 28.7754C100.597 28.7754 100.759 28.8834 100.867 28.9914ZM78.997 34.7694C78.997 35.0934 79.105 35.2014 79.267 35.2014C80.293 35.2014 84.397 29.2074 86.125 26.5614C83.965 25.9674 78.997 31.7994 78.997 34.7694Z" fill="black"/>
</svg>
