<svg width="136" height="54" viewBox="0 0 136 54" fill="none" xmlns="http://www.w3.org/2000/svg">
<path d="M44.1015 19.9734C44.1015 20.6214 43.9935 21.3234 43.8855 22.0794C42.5895 29.6934 35.5695 42.0054 36.0555 48.5394C36.0555 48.8094 35.7855 49.0794 35.5155 49.0794C35.1915 49.0794 34.9755 48.8094 34.9755 48.5394C34.3815 41.1414 43.0755 26.7234 43.0215 19.7574C43.0215 17.7594 42.3195 16.4094 40.8075 16.4094C39.7815 16.4094 38.3235 17.1114 36.4335 18.7314C26.7675 27.1554 21.5835 38.6574 16.6695 49.6734C16.5615 49.8354 16.3995 49.9434 16.2375 49.9434C15.9135 49.9434 15.5895 49.6194 15.6975 49.2414L16.5075 46.6494C18.7215 39.5214 21.0975 32.3934 22.9875 25.1574C24.6075 19.1094 26.3355 12.1434 26.2275 5.9334C26.1735 3.3414 25.9575 1.7754 25.0395 1.7754C24.3915 1.7754 23.4195 2.5314 21.9615 4.2054C16.0215 11.1174 11.5935 19.3254 8.02951 27.8034C6.46351 36.4974 5.16751 44.8134 1.71151 52.8054C1.65751 53.0214 1.44151 53.0754 1.27951 53.0754C1.00951 53.0754 0.793512 52.9134 0.739513 52.6974C0.577512 51.6714 0.523513 50.6454 0.523513 49.6734C0.523513 46.0554 1.44151 42.5454 2.68351 38.9814C4.03351 34.9854 5.54551 30.9894 7.00351 27.4794C7.92151 22.4574 8.89351 17.4354 10.4055 12.6834C10.3515 12.6834 10.3515 12.6834 10.3515 12.7374C10.1355 12.8994 9.81151 12.9534 9.59551 12.7374C9.48751 12.6294 9.43351 12.4674 9.43351 12.3054C9.43351 12.1974 9.48751 12.0354 9.59551 11.9274C10.1355 11.5494 10.6215 11.0634 11.0535 10.6314C12.1875 7.4994 13.5375 4.4754 15.2115 1.6674C15.3195 1.50539 15.4815 1.3974 15.6975 1.3974C15.9675 1.3974 16.2375 1.6134 16.1835 1.9374C16.1295 2.8554 15.9675 3.7734 15.6975 4.6914C14.9955 7.1214 13.7535 9.3354 12.0255 11.1714L11.5395 12.6294C10.4595 16.0854 9.64951 19.5954 8.89351 23.1594C12.2955 15.8694 16.2915 9.0114 21.5835 3.0174C22.9335 1.4514 24.1215 0.695396 25.0935 0.695396C26.3895 0.695396 27.1995 2.1534 27.3075 4.9614C27.4695 8.7954 26.9295 12.6294 26.2275 16.3554C24.5535 24.6714 21.7995 33.3654 19.2615 41.3574C21.7995 36.0114 24.4455 31.0434 28.1175 26.3454C30.5475 23.1054 34.1115 18.9474 37.3515 16.6254C38.6475 15.7074 39.8355 15.2754 40.8075 15.2754C42.8595 15.2754 44.1015 17.0574 44.1015 19.9734ZM1.54951 50.3214C3.76351 44.6514 4.95151 38.7114 6.08551 32.7174C4.89751 35.6874 3.81751 38.7114 2.89951 41.7894C2.08951 44.5434 1.49551 47.4594 1.54951 50.3214ZM64.3089 28.9374C64.4169 28.8294 64.5789 28.7754 64.6869 28.7754C65.0109 28.7754 65.2809 29.0994 65.2809 29.4234C65.2809 29.5314 65.1729 29.6934 65.0649 29.8014C63.1209 31.5834 58.9089 33.0954 55.8849 33.0954C53.9949 33.0954 52.5369 32.4474 52.6449 30.7734C51.4569 31.9614 48.9189 34.4994 47.3529 34.4994C47.0829 34.4994 46.8129 34.4454 46.5969 34.2294C46.3269 34.0134 46.2189 33.6354 46.2189 33.2574C46.2189 31.1514 49.1889 27.4254 52.2129 27.4254C52.7529 27.4254 53.2389 27.5334 53.7789 27.8034C53.8329 27.7494 53.8869 27.6954 53.9409 27.6954C53.9409 27.6414 54.3729 27.2094 54.3729 27.2094C54.4809 27.0474 54.6429 26.9934 54.8049 26.9934C55.1289 26.9934 55.3989 27.2634 55.3989 27.5334C55.3989 27.6954 55.3449 27.8034 55.2369 27.9654C54.2649 29.2614 53.8329 30.2334 53.8329 30.8274C53.8329 31.6914 54.5889 32.0694 55.6689 32.0694C58.2609 32.0694 62.7429 30.2334 64.3089 28.9374ZM47.3529 33.4194C48.2709 33.8514 52.3209 29.5314 52.9689 28.7754C52.6989 28.6674 52.4289 28.6134 52.1049 28.6134C49.4589 28.6134 46.8129 32.7714 47.3529 33.4194ZM62.5303 38.8194C61.8823 38.8194 61.5043 38.4954 61.3963 38.3334C61.2343 38.1174 61.1803 37.8474 61.1803 37.5234C61.1803 35.3094 65.8783 32.0154 65.8783 31.3134C65.8783 31.1514 65.6083 30.8274 64.2043 30.0714C63.3403 29.6394 63.0163 28.9374 63.0163 28.2894C63.0163 26.8854 64.4743 25.3734 65.6623 25.3734C66.2563 25.3734 66.6883 25.7514 66.6883 26.2914C66.6883 26.7774 66.3103 27.5874 64.6903 29.0454C66.4183 29.9634 67.0123 30.5574 67.0123 31.4214C67.0123 32.8794 64.7443 33.9054 62.5303 36.8214C62.2603 37.1454 62.2603 37.4154 62.2603 37.5234V37.6314C62.9623 38.4954 73.4383 31.7994 77.0023 28.9374C77.1103 28.8294 77.2723 28.7754 77.4343 28.7754C77.5963 28.7754 77.7043 28.8294 77.8123 28.9914C78.0283 29.2074 77.9743 29.5854 77.7583 29.7474C75.1663 31.6914 65.0683 38.8194 62.5303 38.8194ZM77.32 35.4174C77.05 35.4174 76.834 35.4174 76.618 35.3634C75.646 35.1474 74.944 34.8774 74.512 34.2294C74.188 33.6894 73.972 33.1494 73.972 32.5554C73.972 32.0154 74.134 31.4754 74.404 30.8814C75.322 28.8834 77.86 27.1554 79.858 27.1554C80.83 27.1554 81.586 27.5874 82.018 28.2894C82.234 28.6134 82.072 29.1534 81.586 29.1534C81.37 29.1534 81.154 29.0454 81.046 28.8834C80.83 28.5054 80.452 28.3434 79.966 28.3434H79.75C77.86 28.5594 75.106 30.5034 75.106 32.5014C75.106 32.9334 75.268 33.3114 75.484 33.6354C75.754 34.0674 76.402 34.2294 77.266 34.2294C78.94 34.2294 81.532 33.5814 84.664 32.2314C87.634 30.9354 90.118 29.4234 90.766 28.9374C91.036 28.7214 91.414 28.7754 91.576 28.9914C91.738 29.2614 91.738 29.5854 91.522 29.8014C90.226 31.0974 81.91 35.4174 77.32 35.4174ZM120.758 28.9914C120.812 29.0994 120.866 29.2074 120.866 29.3154C120.866 29.5314 120.812 29.6934 120.65 29.8014C115.898 33.7974 111.416 36.0114 108.392 36.0114C107.312 36.0114 106.448 35.7414 105.8 35.1474C105.098 34.4994 104.72 33.5274 104.72 32.2854C104.72 30.8814 105.152 29.1534 106.016 27.1014C100.778 32.2854 95.0543 35.2014 91.8143 35.3094C91.7063 35.3634 91.6523 35.3634 91.5443 35.3634C90.0863 35.3634 89.3843 34.7694 89.0603 34.2834C88.6283 33.6354 88.4123 32.9874 88.4123 32.2854C88.4123 31.0434 89.0063 29.8554 89.6543 28.9374C91.0583 27.1014 92.8943 26.5074 94.0283 26.7234C94.5683 26.8314 94.9463 27.1554 95.1083 27.6414C95.1083 27.7494 95.1623 27.8574 95.1623 27.9654C95.1623 28.3974 94.9463 28.7754 94.5683 29.0994C94.0823 29.5314 93.3263 29.7474 92.5703 29.7474C91.9763 29.7474 91.3283 29.6394 90.7883 29.3694C90.6803 29.4774 90.6263 29.5314 90.5723 29.6394C90.0323 30.3414 89.5463 31.3134 89.5463 32.2854C89.5463 32.7714 89.7083 33.2034 89.9783 33.6354C90.3563 34.1754 91.1663 34.2294 91.7603 34.1754C95.3783 34.0134 102.398 29.9634 107.906 23.3214C108.878 21.5934 110.066 19.7574 111.416 17.7054C111.524 17.5434 111.686 17.4354 111.848 17.4354C112.334 17.4354 112.874 18.0834 112.604 18.5154C111.47 20.5134 110.174 22.3494 108.824 24.0234C106.502 28.1814 105.908 30.7194 105.908 32.2854C105.908 33.5274 106.286 34.1214 106.556 34.3374C106.988 34.7154 107.636 34.9314 108.392 34.9314C111.038 34.9314 115.52 32.6634 119.948 28.9374C120.056 28.8294 120.164 28.7754 120.326 28.7754C120.488 28.7754 120.65 28.8294 120.758 28.9914ZM93.6503 27.8574C93.1643 27.8574 92.5163 28.0194 91.7063 28.5054C91.9763 28.5594 92.2463 28.6134 92.4623 28.6134C93.0563 28.6134 93.5963 28.4514 93.8123 28.2354C94.0283 28.0734 93.9743 27.9654 93.9743 27.9114C93.9743 27.9114 93.8663 27.8574 93.6503 27.8574ZM134.397 28.9374C134.505 28.8294 134.667 28.7754 134.775 28.7754C135.099 28.7754 135.369 29.0994 135.369 29.4234C135.369 29.5314 135.261 29.6934 135.153 29.8014C133.209 31.5834 128.997 33.0954 125.973 33.0954C124.083 33.0954 122.625 32.4474 122.733 30.7734C121.545 31.9614 119.007 34.4994 117.441 34.4994C117.171 34.4994 116.901 34.4454 116.685 34.2294C116.415 34.0134 116.307 33.6354 116.307 33.2574C116.307 31.1514 119.277 27.4254 122.301 27.4254C122.841 27.4254 123.327 27.5334 123.867 27.8034C123.921 27.7494 123.975 27.6954 124.029 27.6954C124.029 27.6414 124.461 27.2094 124.461 27.2094C124.569 27.0474 124.731 26.9934 124.893 26.9934C125.217 26.9934 125.487 27.2634 125.487 27.5334C125.487 27.6954 125.433 27.8034 125.325 27.9654C124.353 29.2614 123.921 30.2334 123.921 30.8274C123.921 31.6914 124.677 32.0694 125.757 32.0694C128.349 32.0694 132.831 30.2334 134.397 28.9374ZM117.441 33.4194C118.359 33.8514 122.409 29.5314 123.057 28.7754C122.787 28.6674 122.517 28.6134 122.193 28.6134C119.547 28.6134 116.901 32.7714 117.441 33.4194Z" fill="black"/>
</svg>
