<svg width="93" height="55" viewBox="0 0 93 55" fill="none" xmlns="http://www.w3.org/2000/svg">
<path d="M26.0815 32.7454C26.1355 32.7454 26.1895 32.6914 26.2435 32.6914C26.5135 32.6914 26.6755 32.9074 26.6755 33.1774C26.6755 33.3934 26.5675 33.6634 26.2435 33.7714C25.3255 34.0954 24.3535 34.3654 23.3815 34.7434C22.3555 35.0674 21.2755 35.4994 20.2495 35.8774C17.4955 41.8714 11.6635 52.6174 4.58952 53.9674C4.15752 54.0214 3.77952 54.0754 3.40152 54.0754C1.56552 54.0754 0.593518 53.1034 0.593518 51.5374C0.593518 47.7574 6.26352 40.5214 19.4395 35.0674C23.4355 26.2654 25.5955 17.4634 25.5955 11.3074C25.5955 6.6094 24.3535 3.4234 21.7075 2.8294C21.4915 2.7754 21.2755 2.7754 21.0595 2.7754C16.5775 2.7754 9.01752 11.5234 9.01752 21.2434C9.01752 24.3754 9.82752 27.6154 11.7175 30.6934C11.7715 30.7474 11.7715 30.8014 11.7715 30.8554C11.7715 31.0714 11.6095 31.3414 11.4475 31.4494C11.3395 31.5034 11.2855 31.5034 11.1775 31.5034C10.9615 31.5034 10.7995 31.3954 10.6915 31.2334C8.69352 28.0474 7.88352 24.6454 7.88352 21.3514C7.88352 10.6054 16.5235 0.885396 21.8695 1.7494C25.4335 2.3434 26.7295 5.9614 26.7295 10.7134C26.7295 18.3274 23.4355 28.8574 20.8975 34.5274C22.5715 33.8794 24.3535 33.2854 26.0815 32.7454ZM4.80552 52.8334C10.8535 51.2674 16.0915 42.1954 18.7915 36.5254C7.01952 41.6554 1.72752 48.2434 1.72752 51.3214C1.72752 52.3474 2.37552 52.9954 3.61752 52.9954C3.94152 52.9954 4.37352 52.9414 4.80552 52.8334ZM63.0875 29.9914C63.3035 30.2614 63.3035 30.5854 63.0335 30.8014C61.3595 32.2594 58.7675 34.1494 55.6355 34.1494C52.5575 34.1494 52.2875 32.0434 52.1255 30.7474C52.1255 30.4234 52.0715 29.9374 51.9635 29.8294H51.9095C51.8555 29.8294 51.1535 29.8834 49.2635 31.7734C48.0755 32.9614 47.1035 34.1494 46.8335 34.5814C46.7795 34.6894 46.6715 34.7434 46.6175 34.7974C46.5095 34.8514 46.4555 34.8514 46.3475 34.8514C46.2935 34.8514 46.2935 34.8514 46.2395 34.8514C46.1315 34.8514 46.0775 34.7974 46.0235 34.7434C45.8615 34.6354 45.7535 34.4734 45.7535 34.2574C45.7535 34.1494 45.8075 34.0954 45.8075 34.0414C46.1315 32.5294 46.5095 31.0714 47.0495 29.6674C45.1595 31.1254 43.1615 32.2594 41.3255 32.9074C40.1915 33.3394 39.1115 33.5554 38.2475 33.5554C37.3295 33.5554 36.6275 33.2854 36.1415 32.8534C35.8715 32.5834 35.5475 32.1514 35.5475 31.4494C33.7655 33.3394 31.4975 35.4454 30.1475 35.4994C30.1475 35.4994 30.0935 35.5534 30.0395 35.5534C29.6615 35.5534 29.3915 35.3914 29.2295 35.2294C28.9595 34.9594 28.8515 34.6354 28.8515 34.2574C28.8515 33.3394 29.3915 32.2594 30.0395 31.3414C31.2815 29.7214 33.0635 28.4254 34.7915 28.4254C35.3315 28.4254 35.8715 28.5874 36.4115 28.8574C36.6275 28.5874 36.7895 28.3714 36.9515 28.2094C37.0595 28.0474 37.2215 27.9934 37.4375 27.9934C37.5455 27.9934 37.6535 28.0474 37.7615 28.1014C37.8695 28.2094 37.9775 28.4254 37.9775 28.5874C37.9775 28.6954 37.9235 28.8034 37.8695 28.9114C37.0595 29.9374 36.6815 30.8014 36.6815 31.4494C36.6815 31.6654 36.7355 31.8814 36.8975 32.0434C37.1675 32.2594 37.5995 32.4214 38.1935 32.4214C40.2995 32.4214 44.1335 30.9094 47.9675 27.4534C48.0215 27.2914 48.2375 27.2374 48.3995 27.2374C48.4535 27.2374 48.5615 27.2374 48.6155 27.2914C48.8315 27.3454 48.9395 27.5074 48.9935 27.6694V27.7774V27.8314C48.9935 27.8854 48.9935 27.9394 48.9395 28.0474C48.3455 29.3434 47.8595 30.6394 47.4815 32.0434C48.8315 30.5314 50.7755 28.6954 51.9095 28.6954C53.0435 28.6954 53.1515 29.8294 53.2595 30.6394C53.4215 31.8814 53.5295 33.0154 55.6355 33.0154C57.7415 33.0154 59.8475 32.0434 62.3315 29.9374C62.5475 29.7214 62.9255 29.7754 63.0875 29.9914ZM33.4955 31.9354C34.1975 31.2334 34.9535 30.4234 35.6015 29.7214C35.3315 29.6134 35.0615 29.5594 34.7915 29.5594C33.5495 29.5594 32.3075 30.4774 31.3895 31.5034C30.1475 32.9074 29.8235 34.2034 29.9855 34.3654C29.9855 34.4194 30.6875 34.6354 33.4955 31.9354ZM92.0999 29.9914C92.2079 30.0994 92.2619 30.2074 92.2619 30.3154C92.2619 30.5314 92.1539 30.6934 92.0459 30.8014C89.7779 33.0694 84.8639 34.5274 80.1119 36.4174C75.1439 48.8914 70.4999 53.4814 67.5299 53.4814H67.3139C66.0719 53.4814 65.1539 52.4554 64.8839 50.9974C64.8299 50.6734 64.7759 50.3494 64.7759 49.9714C64.7759 48.2974 65.4239 46.2994 66.6119 44.4094C69.5819 39.6574 74.1719 37.6054 79.2479 35.5534C80.0039 33.5554 80.5439 32.1514 80.9219 31.0714C79.6799 32.9074 77.8979 35.4994 76.5479 35.4994C76.2779 35.4994 76.0619 35.3914 75.8459 35.1754C75.6839 35.0134 75.4679 34.7974 75.4679 34.0954C75.4679 33.4474 75.6299 32.4214 76.2779 30.6934C76.4939 30.0454 76.8179 29.3974 77.0879 28.7494C74.2259 30.9634 70.8779 33.2854 68.6639 33.2854C65.9639 33.2314 66.6119 29.8834 66.0719 29.8294C65.7479 29.7754 65.0459 30.1534 63.4799 31.7734C62.3999 32.8534 61.4819 33.9334 61.1039 34.4734C61.1039 34.5274 61.0499 34.5814 61.0499 34.5814C60.9419 34.7434 60.7799 34.7974 60.5639 34.7974H60.5099C60.1859 34.7974 59.9699 34.4194 60.0239 34.1494C60.5099 31.8274 61.2659 29.6674 62.1299 27.5074C62.2379 27.2374 62.6159 27.0754 62.8859 27.2374C63.1559 27.3994 63.2639 27.7234 63.1559 27.9934C62.6159 29.3434 62.0759 30.6394 61.6979 32.0434C63.0479 30.4774 64.9919 28.6414 66.1259 28.6414C68.3939 28.6414 66.6119 32.1514 68.8799 32.1514C71.1479 32.2054 75.7919 28.2094 78.4919 26.2114C78.5999 26.1574 78.7079 26.1034 78.8159 26.1034C79.2479 26.1034 79.6259 26.6974 79.3019 27.0754C78.1139 28.2634 76.3319 33.3934 76.6019 34.3114C77.6819 34.3654 80.8679 28.2634 82.1099 28.2634C82.6499 28.2634 82.9199 28.6954 82.8119 29.0734C82.2179 31.2334 81.4079 33.1774 80.7059 34.9594C84.4859 33.5014 89.0219 31.7194 91.2899 29.9374C91.3979 29.8294 91.5599 29.7754 91.6679 29.7754C91.8299 29.7754 91.9919 29.8834 92.0999 29.9914ZM67.5299 52.3474C69.4739 52.3474 73.6859 48.9454 78.6539 37.0114C77.4119 37.4974 76.2239 38.0374 75.0359 38.6314C68.5559 41.8714 65.8559 46.8394 65.8559 49.9174C65.8559 50.2414 65.9099 50.5114 65.9639 50.7814C66.0719 51.3214 66.4499 52.3474 67.5299 52.3474Z" fill="black"/>
</svg>
